<?xml version="1.0" encoding="utf-8"?>
<!-- Generator: Adobe Illustrator 28.3.0, SVG Export Plug-In . SVG Version: 6.00 Build 0)  -->
<svg version="1.1" id="レイヤー_1" xmlns="http://www.w3.org/2000/svg" xmlns:xlink="http://www.w3.org/1999/xlink" x="0px"
	 y="0px" viewBox="0 0 496 116" style="enable-background:new 0 0 496 116;" xml:space="preserve">
<style type="text/css">
	.st0{fill:#54C1E4;}
	.st1{fill:#F3C6D2;}
	.st2{fill:#FFFFFF;}
</style>
<g>
	<g>
		<path class="st0" d="M69.29,55.74c-4.54-4.54-7.18-10.58-7.27-16.91h-1.08c-0.09,6.33-2.73,12.37-7.27,16.91
			c-5.91,5.91-14.3,8.15-22.7,7.87v1.13c8.71-0.1,16.79,1.21,22.7,7.13c4.54,4.54,7.29,10.58,7.38,16.91h1.04
			c0.09-6.33,2.66-12.37,7.2-16.91c5.91-5.91,14.45-7.86,22.7-7.5v-1.5C83.99,62.71,75.21,61.66,69.29,55.74z"/>
		<circle class="st1" cx="93.64" cy="25.81" r="13.86"/>
		<circle class="st0" cx="87.03" cy="81.41" r="6.76"/>
		<circle class="st0" cx="110.96" cy="66.28" r="4.31"/>
		<circle class="st0" cx="81.63" cy="51.85" r="4.31"/>
		<circle class="st0" cx="40.32" cy="82.97" r="3.68"/>
		<circle class="st0" cx="6.81" cy="57.66" r="4.31"/>
		<circle class="st0" cx="95.39" cy="96.49" r="3.68"/>
		<circle class="st0" cx="105.57" cy="84.82" r="3.68"/>
		<path class="st0" d="M57.21,16.8c-2.41,2.41-5.61,3.8-8.96,3.85v0.57c3.35,0.05,6.55,1.45,8.96,3.85
			c3.13,3.13,4.32,7.57,4.17,12.02h0.6c-0.06-4.61,0.64-8.89,3.78-12.02c2.41-2.41,5.61-3.86,8.96-3.91v-0.55
			c-3.35-0.05-6.55-1.41-8.96-3.81c-3.13-3.13-4.3-7.66-4.11-12.02h-0.66C60.9,9.02,60.35,13.67,57.21,16.8z"/>
		<path class="st0" d="M35.46,34.8c-3.23-3.23-5.11-7.53-5.17-12.03h-0.77c-0.06,4.5-1.94,8.8-5.17,12.03
			c-4.21,4.21-10.17,5.79-16.14,5.59v0.8c6.19-0.07,11.94,0.86,16.14,5.07c3.23,3.23,5.18,7.53,5.25,12.03h0.74
			c0.06-4.5,1.89-8.8,5.12-12.03c4.21-4.21,10.28-5.59,16.14-5.33v-1.06C45.91,39.76,39.67,39.01,35.46,34.8z"/>
		<path class="st0" d="M17.65,71.34c-2.41,2.3-5.61,3.63-8.96,3.68v0.55c3.35,0.05,6.55,1.38,8.96,3.68
			c3.13,2.99,4.32,7.23,4.17,11.48h0.6c-0.06-4.4,0.64-8.49,3.78-11.48c2.41-2.3,5.61-3.69,8.96-3.73v-0.53
			c-3.35-0.05-6.55-1.34-8.96-3.64c-3.13-2.99-4.3-7.31-4.11-11.48h-0.66C21.35,63.91,20.79,68.35,17.65,71.34z"/>
		<path class="st0" d="M45.58,95.57c-2.19,2.07-5.11,3.27-8.17,3.31v0.49c3.06,0.04,5.98,1.24,8.17,3.31
			c2.86,2.69,3.94,6.5,3.8,10.33h0.54c-0.05-3.96,0.59-7.64,3.44-10.33c2.19-2.07,5.11-3.32,8.17-3.36v-0.48
			c-3.06-0.04-5.98-1.21-8.17-3.27c-2.86-2.69-3.92-6.58-3.75-10.33h-0.6C48.94,88.88,48.43,92.88,45.58,95.57z"/>
		<path class="st0" d="M70.58,98.01c-2,1.62-4.66,2.56-7.45,2.59v0.39c2.79,0.03,5.45,0.97,7.45,2.59c2.6,2.11,3.59,5.1,3.46,8.1
			h0.5c-0.05-3.11,0.53-5.99,3.14-8.1c2-1.62,4.66-2.6,7.45-2.63v-0.37c-2.79-0.03-5.45-0.95-7.45-2.57
			c-2.6-2.11-3.58-5.16-3.42-8.1h-0.55C73.65,92.76,73.18,95.9,70.58,98.01z"/>
		<path class="st0" d="M104.45,47.4c-1.44,1.17-3.36,1.84-5.36,1.87v0.28c2.01,0.02,3.92,0.7,5.36,1.87
			c1.87,1.52,2.58,3.67,2.49,5.83h0.36c-0.03-2.24,0.38-4.31,2.26-5.83c1.44-1.17,3.36-1.87,5.36-1.9v-0.27
			c-2.01-0.02-3.92-0.68-5.36-1.85c-1.87-1.52-2.58-3.71-2.46-5.83h-0.39C106.66,43.63,106.32,45.88,104.45,47.4z"/>
		<circle class="st0" cx="16.59" cy="26.46" r="3.68"/>
		<circle class="st0" cx="74.75" cy="7.31" r="4.31"/>
		<circle class="st0" cx="28.49" cy="100.05" r="3.68"/>
		<path class="st0" d="M37.77,9.62c-1.44,1.17-3.36,1.84-5.36,1.87v0.28c2.01,0.02,3.92,0.7,5.36,1.87
			c1.87,1.52,2.58,3.67,2.49,5.83h0.36c-0.03-2.24,0.38-4.31,2.26-5.83c1.44-1.17,3.36-1.87,5.36-1.9v-0.27
			c-2.01-0.02-3.92-0.68-5.36-1.85C41,8.1,40.3,5.9,40.42,3.79h-0.39C39.98,5.84,39.64,8.1,37.77,9.62z"/>
	</g>
	<g>
		<g>
			<path class="st2" d="M169.13,77.08c0.35,0.46,0.52,0.98,0.52,1.5c0,0.87-0.52,1.74-1.27,2.31c-0.52,0.41-1.1,0.58-1.74,0.58
				c-0.75,0-1.56-0.35-2.03-0.98l-16.37-21.76l-6.31,6.42v13.89c0,1.56-1.16,2.37-2.72,2.37c-1.62,0-2.78-0.81-2.78-2.37V38.02
				c0-1.62,1.16-2.37,2.78-2.37c1.56,0,2.72,0.75,2.72,2.37v20.19l20.94-21.87c0.46-0.52,1.16-0.75,1.79-0.75
				c0.7,0,1.39,0.23,1.91,0.7c0.64,0.52,0.98,1.39,0.98,2.2c0,0.58-0.17,1.16-0.58,1.56l-14.93,15.04L169.13,77.08z"/>
			<path class="st2" d="M174.97,48.51c0-1.62,1.16-2.37,2.72-2.37c1.62,0,2.84,0.75,2.84,2.37v30.53c0,1.56-1.21,2.37-2.84,2.37
				c-1.56,0-2.72-0.81-2.72-2.37V48.51z"/>
			<path class="st2" d="M223.51,78c0.12,0.35,0.17,0.64,0.17,0.98c0,1.1-0.75,1.97-1.91,2.26c-0.4,0.12-0.87,0.17-1.27,0.17
				c-0.98,0-1.85-0.46-2.26-1.5l-1.45-3.7c-4.17-11.28-5.79-15.39-11.57-15.39h-10.65v18.17c0,1.62-1.1,2.43-2.66,2.43
				c-1.62,0-2.78-0.81-2.78-2.49V42.24c0-4.46,1.79-6.25,5.9-6.25h13.54c8.39,0,13.02,4.45,13.02,11.57
				c0,6.65-3.76,10.13-9.14,11.28c3.47,1.04,5.32,4.92,9.6,15.74L223.51,78z M207.89,56.07c4.92,0,8.16-3.07,8.16-7.7
				c0-4.92-2.66-7.58-7.81-7.58h-11.75c-1.22,0-1.91,0.64-1.91,2.03v13.25H207.89z"/>
			<path class="st2" d="M231.78,79.79c-0.4,1.16-1.27,1.62-2.26,1.62c-0.4,0-0.75-0.06-1.16-0.17c-1.16-0.29-2.03-1.27-2.03-2.37
				c0-0.35,0.06-0.64,0.17-0.98l15.74-39.52c0.75-1.97,2.2-2.72,3.99-2.72c1.85,0,3.36,0.75,4.11,2.72L266.09,78
				c0.17,0.35,0.23,0.64,0.23,0.98c0,1.16-0.93,2.03-2.08,2.31c-0.35,0.12-0.69,0.17-1.04,0.17c-1.04,0-1.97-0.52-2.37-1.62
				l-4.57-11.98h-20.02L231.78,79.79z M254.52,63.02l-6.42-16.84c-0.64-1.68-1.27-3.53-1.79-5.5c-0.52,1.97-1.1,3.82-1.79,5.55
				l-6.54,16.78H254.52z"/>
			<path class="st2" d="M304.62,77.08c0.35,0.46,0.52,0.98,0.52,1.5c0,0.87-0.52,1.74-1.27,2.31c-0.52,0.41-1.1,0.58-1.73,0.58
				c-0.75,0-1.56-0.35-2.03-0.98l-16.38-21.76l-6.31,6.42v13.89c0,1.56-1.16,2.37-2.72,2.37c-1.62,0-2.78-0.81-2.78-2.37V38.02
				c0-1.62,1.16-2.37,2.78-2.37c1.56,0,2.72,0.75,2.72,2.37v20.19l20.95-21.87c0.46-0.52,1.16-0.75,1.79-0.75
				c0.7,0,1.39,0.23,1.91,0.7c0.64,0.52,0.98,1.39,0.98,2.2c0,0.58-0.17,1.16-0.58,1.56l-14.93,15.04L304.62,77.08z"/>
			<path class="st2" d="M310.45,48.51c0-1.62,1.16-2.37,2.72-2.37c1.62,0,2.84,0.75,2.84,2.37v30.53c0,1.56-1.22,2.37-2.84,2.37
				c-1.56,0-2.72-0.81-2.72-2.37V48.51z"/>
			<path class="st2" d="M359,78c0.12,0.35,0.17,0.64,0.17,0.98c0,1.1-0.75,1.97-1.91,2.26c-0.4,0.12-0.87,0.17-1.27,0.17
				c-0.98,0-1.85-0.46-2.26-1.5l-1.45-3.7c-4.17-11.28-5.79-15.39-11.57-15.39h-10.65v18.17c0,1.62-1.1,2.43-2.66,2.43
				c-1.62,0-2.78-0.81-2.78-2.49V42.24c0-4.46,1.79-6.25,5.9-6.25h13.54c8.39,0,13.02,4.45,13.02,11.57
				c0,6.65-3.76,10.13-9.14,11.28c3.47,1.04,5.32,4.92,9.6,15.74L359,78z M343.37,56.07c4.92,0,8.16-3.07,8.16-7.7
				c0-4.92-2.66-7.58-7.81-7.58h-11.75c-1.22,0-1.91,0.64-1.91,2.03v13.25H343.37z"/>
			<path class="st2" d="M367.27,79.79c-0.41,1.16-1.27,1.62-2.26,1.62c-0.41,0-0.75-0.06-1.16-0.17c-1.16-0.29-2.03-1.27-2.03-2.37
				c0-0.35,0.06-0.64,0.17-0.98l15.74-39.52c0.75-1.97,2.2-2.72,3.99-2.72c1.85,0,3.36,0.75,4.11,2.72L401.58,78
				c0.17,0.35,0.23,0.64,0.23,0.98c0,1.16-0.92,2.03-2.08,2.31c-0.35,0.12-0.7,0.17-1.04,0.17c-1.04,0-1.97-0.52-2.37-1.62
				l-4.57-11.98h-20.02L367.27,79.79z M390,63.02l-6.42-16.84c-0.64-1.68-1.27-3.53-1.79-5.5c-0.52,1.97-1.1,3.82-1.79,5.55
				l-6.54,16.78H390z"/>
			<path class="st2" d="M407.53,38.14c0-1.74,1.22-2.49,2.78-2.49c1.62,0,2.78,0.75,2.78,2.43v35.76c0,1.33,0.75,2.03,2.08,2.03
				h20.48c1.5,0,2.37,1.1,2.37,2.55c0,1.39-0.87,2.66-2.37,2.66h-22.22c-4.11,0-5.9-1.79-5.9-6.19V38.14z"/>
			<path class="st2" d="M442.36,48.51c0-1.62,1.16-2.37,2.72-2.37c1.62,0,2.84,0.75,2.84,2.37v30.53c0,1.56-1.21,2.37-2.84,2.37
				c-1.56,0-2.72-0.81-2.72-2.37V48.51z"/>
			<path class="st2" d="M458.96,79.79c-0.41,1.16-1.27,1.62-2.26,1.62c-0.41,0-0.75-0.06-1.16-0.17c-1.16-0.29-2.03-1.27-2.03-2.37
				c0-0.35,0.06-0.64,0.17-0.98l15.74-39.52c0.75-1.97,2.2-2.72,3.99-2.72c1.85,0,3.36,0.75,4.11,2.72L493.27,78
				c0.17,0.35,0.23,0.64,0.23,0.98c0,1.16-0.92,2.03-2.08,2.31c-0.35,0.12-0.7,0.17-1.04,0.17c-1.04,0-1.97-0.52-2.37-1.62
				l-4.57-11.98h-20.02L458.96,79.79z M481.7,63.02l-6.42-16.84c-0.64-1.68-1.27-3.53-1.79-5.5c-0.52,1.97-1.1,3.82-1.79,5.55
				l-6.54,16.78H481.7z"/>
		</g>
		<path class="st2" d="M180.02,36.14c0.4,0.39,0.97,0.58,1.49,0.79c0.83,0.33,1.96,0.75,2.61,1.03c0.75,0.32,0.85,0.51-0.07,0.89
			c-0.85,0.35-1.87,0.73-2.75,1.08c-0.78,0.3-1.41,0.64-1.72,1.37c-2.3,5.37-1.33,5.39-3.64,0c-0.32-0.74-0.96-1.08-1.69-1.36
			c-0.64-0.26-1.35-0.53-2-0.79c-0.33-0.13-0.63-0.25-0.87-0.35c-0.38-0.16-0.59-0.3-0.58-0.43c0.04-0.29,1.17-0.63,1.61-0.83
			c0.67-0.26,1.37-0.53,2.03-0.8c0.65-0.26,1.16-0.58,1.45-1.19c0.5-1.04,1-2.52,1.42-3.49c0.12-0.25,0.35-0.94,0.65-0.5
			c0.52,0.95,0.91,2.24,1.34,3.24c0.24,0.6,0.43,1.02,0.72,1.31L180.02,36.14z"/>
		<path class="st2" d="M315.5,36.14c0.4,0.39,0.97,0.58,1.49,0.79c0.83,0.33,1.96,0.75,2.61,1.03c0.75,0.32,0.85,0.51-0.07,0.89
			c-0.85,0.35-1.87,0.73-2.75,1.08c-0.78,0.3-1.41,0.64-1.72,1.37c-2.3,5.37-1.33,5.39-3.64,0c-0.32-0.74-0.96-1.08-1.69-1.36
			c-0.64-0.26-1.35-0.53-2-0.79c-0.33-0.13-0.63-0.25-0.87-0.35c-0.38-0.16-0.59-0.3-0.58-0.43c0.04-0.29,1.17-0.63,1.61-0.83
			c0.67-0.26,1.37-0.53,2.03-0.8c0.65-0.26,1.16-0.58,1.45-1.19c0.5-1.04,1-2.52,1.42-3.49c0.12-0.25,0.35-0.94,0.65-0.5
			c0.52,0.95,0.91,2.24,1.34,3.24c0.24,0.6,0.43,1.02,0.72,1.31L315.5,36.14z"/>
		<path class="st2" d="M447.4,36.14c0.4,0.39,0.97,0.58,1.49,0.79c0.83,0.33,1.96,0.75,2.61,1.03c0.75,0.32,0.85,0.51-0.07,0.89
			c-0.85,0.35-1.87,0.73-2.75,1.08c-0.78,0.3-1.41,0.64-1.72,1.37c-2.3,5.37-1.33,5.39-3.64,0c-0.32-0.74-0.96-1.08-1.69-1.36
			c-0.64-0.26-1.35-0.53-2-0.79c-0.33-0.13-0.63-0.25-0.87-0.35c-0.38-0.16-0.59-0.3-0.58-0.43c0.04-0.29,1.17-0.63,1.61-0.83
			c0.67-0.26,1.37-0.53,2.03-0.8c0.65-0.26,1.16-0.58,1.45-1.19c0.5-1.04,1-2.52,1.42-3.49c0.12-0.25,0.35-0.94,0.65-0.5
			c0.52,0.95,0.91,2.24,1.34,3.24c0.24,0.6,0.43,1.02,0.72,1.31L447.4,36.14z"/>
	</g>
</g>
</svg>
