<?xml version="1.0" encoding="utf-8"?>
<!-- Generator: Adobe Illustrator 28.3.0, SVG Export Plug-In . SVG Version: 6.00 Build 0)  -->
<svg version="1.1" id="レイヤー_1" xmlns="http://www.w3.org/2000/svg" xmlns:xlink="http://www.w3.org/1999/xlink" x="0px"
	 y="0px" viewBox="0 0 800 200" style="enable-background:new 0 0 800 200;" xml:space="preserve">
<style type="text/css">
	.st0{fill:#54C1E4;}
	.st1{fill:#F3C6D2;}
	.st2{fill:#FFFFFF;}
</style>
<g>
	<g>
		<path class="st0" d="M127.95,102.5c-7.02-7.02-11.1-16.35-11.24-26.14h-1.67c-0.14,9.79-4.22,19.12-11.24,26.14
			c-9.14,9.14-22.1,12.59-35.08,12.16v1.74c13.46-0.16,25.94,1.88,35.08,11.01c7.02,7.02,11.27,16.35,11.41,26.14h1.61
			c0.14-9.79,4.1-19.12,11.12-26.14c9.14-9.14,22.34-12.15,35.08-11.59v-2.31C150.65,113.27,137.09,111.64,127.95,102.5z"/>
		<circle class="st1" cx="165.57" cy="56.24" r="21.42"/>
		<circle class="st0" cx="155.35" cy="142.17" r="10.45"/>
		<circle class="st0" cx="192.34" cy="118.79" r="6.66"/>
		<circle class="st0" cx="147.01" cy="96.48" r="6.66"/>
		<circle class="st0" cx="83.17" cy="144.58" r="5.69"/>
		<circle class="st0" cx="31.38" cy="105.46" r="6.66"/>
		<circle class="st0" cx="168.28" cy="165.47" r="5.69"/>
		<circle class="st0" cx="184.02" cy="147.44" r="5.69"/>
		<path class="st0" d="M109.28,42.31c-3.72,3.72-8.66,5.88-13.85,5.95v0.89c5.18,0.07,10.13,2.23,13.85,5.95
			c4.84,4.84,6.67,11.7,6.44,18.58h0.92c-0.09-7.13,0.99-13.74,5.83-18.58c3.72-3.72,8.66-5.97,13.85-6.04v-0.86
			c-5.18-0.07-10.13-2.17-13.85-5.89c-4.84-4.84-6.65-11.83-6.35-18.58h-1.01C114.98,30.29,114.12,37.47,109.28,42.31z"/>
		<path class="st0" d="M75.66,70.14c-4.99-4.99-7.89-11.63-7.99-18.59h-1.19c-0.1,6.96-3,13.6-7.99,18.59
			c-6.5,6.5-15.71,8.95-24.95,8.65v1.24c9.57-0.11,18.45,1.33,24.95,7.83c4.99,4.99,8.01,11.63,8.11,18.59h1.15
			c0.1-6.96,2.92-13.6,7.91-18.59c6.5-6.5,15.89-8.64,24.95-8.24v-1.65C91.81,77.8,82.16,76.64,75.66,70.14z"/>
		<path class="st0" d="M48.14,126.61c-3.72,3.55-8.66,5.61-13.85,5.68v0.84c5.18,0.07,10.13,2.13,13.85,5.68
			c4.84,4.62,6.67,11.17,6.44,17.73h0.92c-0.09-6.81,0.99-13.11,5.83-17.73c3.72-3.55,8.66-5.7,13.85-5.77v-0.82
			c-5.18-0.07-10.13-2.08-13.85-5.62c-4.84-4.62-6.65-11.29-6.35-17.73h-1.01C53.84,115.13,52.98,121.99,48.14,126.61z"/>
		<path class="st0" d="M91.29,164.05c-3.39,3.19-7.9,5.05-12.62,5.11v0.76c4.73,0.06,9.24,1.92,12.62,5.11
			c4.41,4.16,6.08,10.05,5.87,15.96h0.84c-0.08-6.12,0.91-11.8,5.32-15.96c3.39-3.19,7.9-5.13,12.62-5.19v-0.73
			c-4.73-0.06-9.24-1.87-12.62-5.06c-4.41-4.16-6.06-10.16-5.79-15.96h-0.92C96.5,153.72,95.71,159.89,91.29,164.05z"/>
		<path class="st0" d="M129.93,167.82c-3.09,2.5-7.2,3.96-11.51,4.01v0.6c4.31,0.05,8.42,1.51,11.51,4.01
			c4.02,3.26,5.55,7.88,5.35,12.52h0.77c-0.07-4.8,0.83-9.26,4.85-12.52c3.09-2.5,7.2-4.02,11.51-4.07v-0.58
			c-4.31-0.05-8.42-1.46-11.51-3.97c-4.02-3.26-5.53-7.97-5.28-12.52h-0.84C134.68,159.71,133.96,164.55,129.93,167.82z"/>
		<path class="st0" d="M182.28,89.61c-2.23,1.8-5.19,2.85-8.29,2.89v0.43c3.1,0.04,6.06,1.08,8.29,2.89
			c2.9,2.35,3.99,5.68,3.86,9.01h0.55c-0.05-3.46,0.59-6.67,3.49-9.01c2.23-1.8,5.19-2.89,8.29-2.93v-0.41
			c-3.1-0.04-6.06-1.05-8.29-2.86c-2.9-2.35-3.98-5.74-3.8-9.01h-0.61C185.69,83.78,185.18,87.26,182.28,89.61z"/>
		<circle class="st0" cx="46.49" cy="57.24" r="5.69"/>
		<circle class="st0" cx="136.37" cy="27.65" r="6.66"/>
		<circle class="st0" cx="64.89" cy="170.98" r="5.69"/>
		<path class="st0" d="M79.22,31.21c-2.23,1.8-5.19,2.85-8.29,2.89v0.43c3.1,0.04,6.06,1.08,8.29,2.89c2.9,2.35,3.99,5.68,3.86,9.01
			h0.55c-0.05-3.46,0.59-6.67,3.49-9.01c2.23-1.8,5.19-2.89,8.29-2.93v-0.41c-3.1-0.04-6.06-1.05-8.29-2.86
			c-2.9-2.35-3.98-5.74-3.8-9.01h-0.61C82.64,25.38,82.12,28.87,79.22,31.21z"/>
	</g>
	<g>
		<g>
			<path class="st2" d="M282.24,135.47c0.54,0.72,0.8,1.52,0.8,2.33c0,1.34-0.8,2.68-1.97,3.58c-0.8,0.63-1.7,0.89-2.68,0.89
				c-1.16,0-2.41-0.54-3.13-1.52l-25.3-33.62l-9.75,9.93v21.46c0,2.41-1.79,3.67-4.2,3.67c-2.5,0-4.29-1.25-4.29-3.67v-63.4
				c0-2.5,1.79-3.67,4.29-3.67c2.42,0,4.2,1.16,4.2,3.67v31.21l32.37-33.8c0.72-0.8,1.79-1.16,2.77-1.16c1.07,0,2.15,0.36,2.95,1.07
				c0.98,0.8,1.52,2.15,1.52,3.4c0,0.89-0.27,1.79-0.89,2.41l-23.07,23.25L282.24,135.47z"/>
			<path class="st2" d="M291.26,91.33c0-2.5,1.79-3.67,4.2-3.67c2.51,0,4.38,1.16,4.38,3.67v47.18c0,2.41-1.88,3.67-4.38,3.67
				c-2.41,0-4.2-1.25-4.2-3.67V91.33z"/>
			<path class="st2" d="M366.28,136.9c0.18,0.54,0.27,0.98,0.27,1.52c0,1.7-1.16,3.04-2.95,3.49c-0.62,0.18-1.34,0.27-1.97,0.27
				c-1.52,0-2.86-0.72-3.49-2.33l-2.24-5.72c-6.44-17.44-8.94-23.79-17.89-23.79h-16.45v28.08c0,2.5-1.7,3.76-4.11,3.76
				c-2.5,0-4.29-1.25-4.29-3.85V81.64c0-6.89,2.77-9.66,9.12-9.66h20.93c12.96,0,20.12,6.88,20.12,17.88
				c0,10.28-5.81,15.65-14.13,17.44c5.37,1.61,8.23,7.6,14.84,24.32L366.28,136.9z M342.14,103.01c7.6,0,12.61-4.74,12.61-11.89
				c0-7.6-4.11-11.71-12.07-11.71h-18.15c-1.88,0-2.95,0.98-2.95,3.13v20.48H342.14z"/>
			<path class="st2" d="M379.06,139.67c-0.62,1.79-1.97,2.5-3.49,2.5c-0.62,0-1.16-0.09-1.79-0.27c-1.79-0.45-3.13-1.97-3.13-3.67
				c0-0.54,0.09-0.98,0.27-1.52l24.32-61.08c1.16-3.04,3.4-4.2,6.17-4.2c2.86,0,5.19,1.16,6.35,4.2l24.32,61.25
				c0.27,0.54,0.36,0.98,0.36,1.52c0,1.79-1.43,3.13-3.22,3.58c-0.53,0.18-1.07,0.27-1.61,0.27c-1.61,0-3.04-0.8-3.67-2.5
				l-7.06-18.51h-30.94L379.06,139.67z M414.2,113.74l-9.92-26.02c-0.98-2.59-1.97-5.45-2.77-8.49c-0.8,3.04-1.7,5.9-2.77,8.58
				l-10.1,25.93H414.2z"/>
			<path class="st2" d="M491.63,135.47c0.54,0.72,0.8,1.52,0.8,2.33c0,1.34-0.8,2.68-1.97,3.58c-0.8,0.63-1.7,0.89-2.68,0.89
				c-1.16,0-2.42-0.54-3.13-1.52l-25.31-33.62l-9.75,9.93v21.46c0,2.41-1.79,3.67-4.2,3.67c-2.5,0-4.29-1.25-4.29-3.67v-63.4
				c0-2.5,1.79-3.67,4.29-3.67c2.41,0,4.2,1.16,4.2,3.67v31.21l32.37-33.8c0.71-0.8,1.79-1.16,2.77-1.16c1.07,0,2.15,0.36,2.95,1.07
				c0.98,0.8,1.52,2.15,1.52,3.4c0,0.89-0.27,1.79-0.89,2.41l-23.07,23.25L491.63,135.47z"/>
			<path class="st2" d="M500.65,91.33c0-2.5,1.79-3.67,4.2-3.67c2.5,0,4.38,1.16,4.38,3.67v47.18c0,2.41-1.88,3.67-4.38,3.67
				c-2.42,0-4.2-1.25-4.2-3.67V91.33z"/>
			<path class="st2" d="M575.67,136.9c0.18,0.54,0.27,0.98,0.27,1.52c0,1.7-1.16,3.04-2.95,3.49c-0.62,0.18-1.34,0.27-1.97,0.27
				c-1.52,0-2.86-0.72-3.49-2.33l-2.24-5.72c-6.44-17.44-8.94-23.79-17.89-23.79h-16.45v28.08c0,2.5-1.7,3.76-4.11,3.76
				c-2.5,0-4.29-1.25-4.29-3.85V81.64c0-6.89,2.77-9.66,9.12-9.66h20.93c12.96,0,20.12,6.88,20.12,17.88
				c0,10.28-5.81,15.65-14.13,17.44c5.37,1.61,8.23,7.6,14.84,24.32L575.67,136.9z M551.53,103.01c7.6,0,12.61-4.74,12.61-11.89
				c0-7.6-4.11-11.71-12.07-11.71h-18.15c-1.88,0-2.95,0.98-2.95,3.13v20.48H551.53z"/>
			<path class="st2" d="M588.45,139.67c-0.63,1.79-1.97,2.5-3.49,2.5c-0.63,0-1.16-0.09-1.79-0.27c-1.79-0.45-3.13-1.97-3.13-3.67
				c0-0.54,0.09-0.98,0.27-1.52l24.32-61.08c1.16-3.04,3.4-4.2,6.17-4.2c2.86,0,5.19,1.16,6.35,4.2l24.32,61.25
				c0.27,0.54,0.36,0.98,0.36,1.52c0,1.79-1.43,3.13-3.22,3.58c-0.54,0.18-1.07,0.27-1.61,0.27c-1.61,0-3.04-0.8-3.66-2.5
				l-7.06-18.51h-30.94L588.45,139.67z M623.59,113.74l-9.93-26.02c-0.98-2.59-1.97-5.45-2.77-8.49c-0.8,3.04-1.7,5.9-2.77,8.58
				l-10.1,25.93H623.59z"/>
			<path class="st2" d="M650.67,75.29c0-2.68,1.88-3.85,4.29-3.85c2.51,0,4.29,1.16,4.29,3.76v55.26c0,2.06,1.16,3.13,3.22,3.13
				h31.65c2.33,0,3.67,1.7,3.67,3.93c0,2.15-1.34,4.11-3.67,4.11h-34.34c-6.35,0-9.12-2.77-9.12-9.57V75.29z"/>
			<path class="st2" d="M704.5,91.33c0-2.5,1.79-3.67,4.2-3.67c2.51,0,4.38,1.16,4.38,3.67v47.18c0,2.41-1.88,3.67-4.38,3.67
				c-2.41,0-4.2-1.25-4.2-3.67V91.33z"/>
			<path class="st2" d="M730.16,139.67c-0.63,1.79-1.97,2.5-3.49,2.5c-0.63,0-1.16-0.09-1.79-0.27c-1.79-0.45-3.13-1.97-3.13-3.67
				c0-0.54,0.09-0.98,0.27-1.52l24.32-61.08c1.16-3.04,3.4-4.2,6.17-4.2c2.86,0,5.19,1.16,6.35,4.2l24.32,61.25
				c0.27,0.54,0.36,0.98,0.36,1.52c0,1.79-1.43,3.13-3.22,3.58c-0.54,0.18-1.07,0.27-1.61,0.27c-1.61,0-3.04-0.8-3.66-2.5
				l-7.06-18.51h-30.94L730.16,139.67z M765.3,113.74l-9.93-26.02c-0.98-2.59-1.97-5.45-2.77-8.49c-0.8,3.04-1.7,5.9-2.77,8.58
				l-10.1,25.93H765.3z"/>
		</g>
		<path class="st2" d="M299.06,72.21c0.62,0.6,1.5,0.89,2.3,1.23c1.29,0.51,3.02,1.16,4.03,1.59c1.16,0.49,1.32,0.79-0.12,1.37
			c-1.31,0.54-2.9,1.13-4.24,1.67c-1.2,0.46-2.17,0.99-2.66,2.12c-3.56,8.29-2.06,8.33-5.63,0c-0.5-1.15-1.48-1.66-2.62-2.1
			c-0.99-0.4-2.09-0.82-3.1-1.21c-0.51-0.2-0.98-0.38-1.34-0.54c-0.58-0.25-0.91-0.46-0.89-0.66c0.07-0.44,1.8-0.98,2.49-1.28
			c1.03-0.41,2.12-0.82,3.14-1.24c1.01-0.4,1.79-0.9,2.24-1.84c0.78-1.61,1.54-3.9,2.19-5.39c0.19-0.39,0.54-1.46,1-0.77
			c0.8,1.47,1.4,3.46,2.06,5.01c0.37,0.92,0.67,1.57,1.12,2.02L299.06,72.21z"/>
		<path class="st2" d="M508.45,72.21c0.62,0.6,1.5,0.89,2.3,1.23c1.29,0.51,3.02,1.16,4.03,1.59c1.16,0.49,1.32,0.79-0.12,1.37
			c-1.31,0.54-2.9,1.13-4.24,1.67c-1.2,0.46-2.17,0.99-2.66,2.12c-3.56,8.29-2.06,8.33-5.63,0c-0.5-1.15-1.48-1.66-2.62-2.1
			c-0.99-0.4-2.09-0.82-3.1-1.21c-0.51-0.2-0.98-0.38-1.34-0.54c-0.58-0.25-0.91-0.46-0.89-0.66c0.07-0.44,1.8-0.98,2.49-1.28
			c1.03-0.41,2.12-0.82,3.14-1.24c1.01-0.4,1.79-0.9,2.24-1.84c0.78-1.61,1.54-3.9,2.19-5.39c0.19-0.39,0.54-1.46,1-0.77
			c0.8,1.47,1.4,3.46,2.06,5.01c0.37,0.92,0.67,1.57,1.12,2.02L508.45,72.21z"/>
		<path class="st2" d="M712.3,72.21c0.62,0.6,1.49,0.89,2.3,1.23c1.29,0.51,3.02,1.16,4.03,1.59c1.16,0.49,1.32,0.79-0.12,1.37
			c-1.31,0.54-2.9,1.13-4.24,1.67c-1.2,0.46-2.17,0.99-2.66,2.12c-3.56,8.29-2.06,8.33-5.63,0c-0.5-1.15-1.48-1.66-2.62-2.1
			c-0.99-0.4-2.09-0.82-3.1-1.21c-0.51-0.2-0.98-0.38-1.34-0.54c-0.58-0.25-0.91-0.46-0.89-0.66c0.07-0.44,1.8-0.98,2.49-1.28
			c1.03-0.41,2.12-0.82,3.14-1.24c1.01-0.4,1.79-0.9,2.24-1.84c0.78-1.61,1.54-3.9,2.19-5.39c0.19-0.39,0.54-1.46,1-0.77
			c0.8,1.47,1.4,3.46,2.06,5.01c0.37,0.92,0.67,1.57,1.12,2.02L712.3,72.21z"/>
	</g>
</g>
</svg>
